# xmcd CD database file
# Copyright (C) 1996 Ti Kan
#
# Track frame offsets:
#	150
#	23548
#	40253
#	69729
#	89338
#	113418
#	140431
#	159595
#	188812
#	211060
#	230027
#	250782
#	272920
#	290033
#	310351
# Disc length: 4489 seconds
#
# Revision: 1
# Processed by: cddbd v1.5PL3 Copyright (c) Steve Scherf et al.
# Submitted via: CDCOPY 4.744
#
DISCID=d511870f
DTITLE=Vari - Chill Out Cafè vol 8 - CD2
DYEAR=1900
DGENRE=
TTITLE0=Jestofunk - Walk like a baby
TTITLE1=Orange Factory - The windmills of your mind
TTITLE2=LTJ Experience - Empty street
TTITLE3=Alien Army - ft DJ Gruff - The classic
TTITLE4=Cybophonia - Cut and paste (Keigo Tanaka rmx)
TTITLE5=Halibut - Frame
TTITLE6=South park - That's me
TTITLE7=Riovolt - Da onda
TTITLE8=Black Mighty Wax - Dreaming a dream
TTITLE9=Rude Hi Fi - Soulpusha
TTITLE10=Keen - Desertic cave
TTITLE11=Spy from Cairo - Coming home
TTITLE12=The Unkempt - Nothing for nothing
TTITLE13=Tommy Bass ft Kikko Montefiori - Dreams come true
TTITLE14=Dyran Y Garcia - Night in Paris
EXTD=
EXTT0=
EXTT1=
EXTT2=
EXTT3=
EXTT4=
EXTT5=
EXTT6=
EXTT7=
EXTT8=
EXTT9=
EXTT10=
EXTT11=
EXTT12=
EXTT13=
EXTT14=
PLAYORDER=
